<?xml version="1.0" standalone="no"?>
<!DOCTYPE svg PUBLIC "-//W3C//DTD SVG 20010904//EN"
 "http://www.w3.org/TR/2001/REC-SVG-20010904/DTD/svg10.dtd">
<svg version="1.0" xmlns="http://www.w3.org/2000/svg"
 width="313.000000pt" height="578.000000pt" viewBox="0 0 313.000000 578.000000"
 preserveAspectRatio="xMidYMid meet">
<metadata>
Created by potrace 1.16, written by Peter Selinger 2001-2019
</metadata>
<g transform="translate(0.000000,578.000000) scale(0.100000,-0.100000)"
fill="#000000" stroke="none">
<path d="M1904 5766 c-17 -8 -38 -24 -47 -36 -13 -18 -26 -23 -69 -24 -59 -3
-67 -6 -118 -51 -167 -147 -223 -246 -244 -435 -6 -47 -11 -57 -36 -72 -36
-21 -37 -32 -6 -63 22 -22 23 -29 15 -60 -6 -20 -9 -46 -8 -58 1 -12 -3 -35
-9 -50 -16 -37 -15 -57 3 -87 21 -37 56 -112 53 -115 -2 -2 -109 -12 -238 -24
-204 -17 -236 -18 -243 -5 -11 18 -61 18 -77 -1 -17 -21 -25 -19 -38 10 -16
34 -63 34 -89 1 -15 -18 -26 -23 -47 -19 -19 4 -34 -1 -49 -15 -19 -17 -54
-22 -277 -42 -273 -23 -299 -28 -343 -64 l-29 -23 11 -129 c6 -71 14 -142 17
-158 l6 -29 97 7 c53 4 165 14 250 22 215 20 216 20 230 -14 6 -15 23 -41 37
-57 25 -28 26 -34 19 -105 -7 -88 6 -114 67 -125 33 -6 38 -13 77 -93 30 -63
41 -100 41 -133 0 -90 36 -142 131 -189 58 -30 63 -30 168 -26 91 3 116 8 158
30 44 22 52 23 57 10 12 -31 5 -51 -29 -84 -29 -28 -35 -41 -35 -77 0 -35 6
-50 34 -80 40 -46 53 -103 24 -111 -10 -2 -18 -8 -18 -13 0 -5 -4 -9 -10 -9
-5 0 -10 7 -10 15 0 21 -45 48 -70 40 -24 -8 -24 -11 0 -104 11 -41 20 -94 20
-118 0 -42 -1 -43 -34 -43 -33 0 -34 1 -40 54 -4 29 -6 84 -5 120 3 81 -9 98
-49 75 l-27 -15 0 -137 c-1 -94 -4 -140 -13 -149 -7 -7 -12 -38 -12 -71 0 -43
-6 -69 -21 -94 -17 -27 -22 -56 -26 -137 -11 -213 11 -264 126 -287 l61 -13 0
-37 c0 -21 -5 -39 -12 -41 -9 -3 -9 -18 1 -64 11 -52 9 -78 -14 -233 -24 -163
-25 -174 -9 -192 18 -20 17 -38 -10 -164 -8 -38 -19 -131 -25 -205 -12 -141
-21 -184 -65 -287 -17 -41 -26 -81 -26 -116 0 -36 -5 -59 -15 -67 -14 -12 -16
-22 -17 -117 -1 -38 -5 -53 -15 -53 -7 0 -16 -7 -19 -15 -4 -8 -17 -15 -30
-15 -12 0 -27 -6 -31 -13 -4 -8 -33 -25 -63 -39 -105 -48 -148 -114 -136 -212
14 -120 23 -156 47 -182 26 -28 72 -51 134 -67 53 -13 208 -12 256 2 22 6 58
16 82 22 23 6 56 17 72 24 42 18 95 32 200 52 17 3 40 17 52 30 28 30 53 141
53 238 0 62 3 71 25 90 23 18 26 28 29 95 1 41 10 100 19 130 9 30 23 111 32
180 14 110 66 344 79 357 2 3 3 -165 1 -372 l-4 -376 34 -21 c30 -17 34 -23
27 -46 -13 -47 -5 -323 11 -374 30 -95 122 -171 237 -195 122 -25 309 18 341
79 7 13 18 28 24 35 12 12 20 102 18 205 -1 45 -10 77 -47 156 -48 102 -55
132 -33 132 8 0 23 10 34 23 16 17 20 34 19 77 -1 30 -5 61 -10 68 -4 8 -5 37
-2 65 3 29 0 101 -9 162 -8 61 -15 191 -15 290 -1 99 -5 212 -9 250 -7 63 -6
72 12 92 19 21 19 28 8 195 -6 95 -13 190 -15 211 -3 26 0 40 10 44 11 4 12
17 8 58 l-6 52 43 11 c115 30 135 72 133 282 -1 74 -2 170 -2 214 -1 59 -5 83
-18 97 -17 19 -16 37 6 120 7 26 17 39 34 43 13 3 38 22 55 41 24 28 31 45 31
79 0 55 -35 110 -73 114 -29 4 -29 3 -47 -64 -12 -50 -36 -63 -64 -35 -18 18
-19 25 -8 70 6 28 9 57 6 64 -6 16 23 27 71 27 46 1 108 33 143 76 32 39 62
138 62 207 0 50 -121 283 -200 387 -134 177 -326 350 -454 411 -56 26 -58 29
-35 37 13 6 211 26 439 46 247 21 438 43 473 52 l57 17 -1 61 c0 34 -6 108
-12 166 l-12 105 -35 3 c-20 2 -163 -9 -319 -23 -155 -14 -288 -25 -296 -25
-14 0 -23 49 -26 148 -1 54 1 65 20 78 28 20 27 48 -4 72 -23 18 -25 27 -25
95 0 42 -5 100 -11 129 -18 84 -82 194 -163 281 -69 72 -78 78 -127 86 -40 7
-57 15 -72 36 -18 24 -72 56 -94 55 -4 -1 -22 -7 -39 -14z m102 -30 c32 -27
42 -81 43 -230 l1 -90 -27 26 c-37 34 -66 48 -99 48 -30 0 -94 -36 -94 -52 0
-6 8 -4 18 5 9 8 30 21 47 27 59 22 145 -36 145 -98 0 -12 5 -24 11 -28 8 -4
10 44 7 165 -3 153 -1 171 13 171 9 0 21 -6 26 -12 21 -27 37 -127 38 -230 0
-60 3 -108 8 -108 18 0 4 243 -19 323 -5 15 -1 18 17 15 54 -7 88 -113 90
-284 1 -68 3 -80 9 -51 7 39 -3 208 -15 240 -10 23 7 22 28 -4 96 -111 136
-210 144 -352 l6 -98 -44 6 -44 6 53 -19 c69 -25 90 -45 72 -66 -18 -23 -35
-20 -50 9 -15 28 -21 30 -114 45 l-69 11 -34 -33 -34 -33 -132 0 c-142 0 -270
9 -304 22 -11 4 -33 23 -49 42 l-28 34 -80 -6 c-90 -6 -116 -13 -116 -32 0 -8
-5 -17 -10 -20 -14 -8 -40 13 -40 32 0 16 58 43 95 43 14 0 25 5 25 11 0 7
-11 8 -30 4 -29 -6 -30 -6 -30 34 0 119 60 261 149 352 33 35 63 61 65 58 3
-2 -4 -34 -14 -70 -18 -68 -37 -247 -21 -199 5 14 9 42 10 63 1 55 30 176 52
219 19 37 73 76 83 59 3 -4 -3 -33 -14 -64 -23 -66 -40 -171 -39 -242 1 -37 5
-23 15 54 19 149 48 239 81 252 14 5 27 8 29 6 2 -2 -3 -35 -11 -73 -8 -38
-17 -116 -20 -174 -6 -105 -6 -105 11 -67 11 24 13 42 7 48 -11 11 7 177 26
246 21 78 101 108 157 59z m-344 -656 c18 -20 35 -30 55 -30 17 0 33 -3 36 -6
9 -9 49 -12 197 -15 179 -3 185 -2 220 28 20 17 34 22 38 15 4 -6 21 -14 37
-18 42 -10 108 -44 122 -63 7 -9 13 -35 13 -58 0 -24 4 -43 9 -43 5 0 14 -15
21 -34 13 -40 1 -80 -30 -96 -20 -11 -21 -10 -15 57 5 49 4 64 -4 53 -6 -8
-11 -33 -11 -55 -1 -89 -59 -236 -126 -316 -195 -234 -506 -221 -677 29 -67
98 -92 193 -101 385 -6 114 -5 118 17 141 15 15 46 28 83 36 32 6 64 13 69 15
18 6 20 5 47 -25z m1401 -398 c5 -63 7 -115 5 -117 -3 -4 -115 -14 -533 -50
-99 -8 -207 -18 -239 -22 l-59 -6 23 34 c13 19 25 36 26 37 2 3 415 41 451 42
7 0 11 20 11 55 0 39 -5 55 -14 55 -7 0 -90 -7 -184 -16 -94 -8 -175 -14 -180
-12 -5 2 -3 17 5 34 12 30 15 31 91 38 136 11 306 27 389 35 44 5 107 8 140 7
l60 -1 8 -113z m-1585 -60 c7 -20 16 -53 18 -72 7 -49 29 -79 72 -98 l37 -16
-125 -12 c-69 -7 -233 -22 -365 -33 -132 -11 -393 -34 -580 -51 -187 -16 -350
-30 -362 -30 -23 0 -20 -12 -39 179 l-6 58 54 7 c46 5 271 25 753 67 72 6 218
19 325 28 107 9 197 16 199 14 3 -2 11 -20 19 -41z m1230 16 l3 -25 -128 -11
c-70 -7 -163 -15 -206 -19 l-77 -6 8 24 c6 16 20 26 43 31 37 9 327 36 344 33
6 -1 11 -13 13 -27z m-2618 -90 c0 -13 5 -77 11 -143 l10 -120 -27 -23 c-14
-13 -29 -20 -32 -17 -4 4 -11 67 -17 142 l-10 135 24 24 c30 30 41 30 41 2z
m2015 -194 c-6 -2 -9 -20 -7 -39 5 -43 -25 -135 -44 -135 -8 0 -25 9 -36 20
-12 11 -44 28 -71 38 l-50 19 48 26 c26 15 53 27 59 27 6 0 29 11 51 24 22 13
45 24 50 24 6 0 6 -1 0 -4z m41 -3 c-4 -5 2 -7 12 -4 10 2 28 -5 41 -16 13
-12 29 -21 35 -21 6 0 23 -10 38 -23 15 -12 54 -42 87 -67 33 -25 58 -50 57
-55 -2 -6 3 -20 11 -30 13 -17 15 -17 10 -2 -10 28 10 20 29 -12 10 -17 21
-28 26 -25 4 3 8 1 8 -4 0 -5 18 -27 41 -50 24 -25 37 -47 33 -53 -4 -7 -3 -9
3 -6 14 9 37 -19 28 -32 -3 -7 0 -8 9 -5 10 4 16 1 16 -9 0 -8 3 -17 8 -19 14
-6 62 -84 62 -102 0 -9 4 -15 8 -12 5 3 16 -10 24 -28 l16 -33 -52 27 c-44 23
-63 27 -118 25 -74 -4 -138 -28 -181 -69 -15 -14 -30 -26 -31 -26 -2 0 -21 26
-42 57 -40 60 -42 62 -87 102 -20 19 -29 21 -40 12 -10 -8 -27 -8 -63 -1 -58
13 -284 18 -277 8 2 -5 0 -8 -4 -8 -8 0 -12 -21 -13 -65 -1 -41 -20 -72 -46
-72 -13 0 -24 3 -24 8 0 9 15 13 39 9 12 -1 13 1 3 13 -7 8 -10 21 -7 30 4 10
-3 18 -24 25 -16 6 -32 8 -35 5 -3 -4 -6 1 -6 10 0 10 4 17 10 17 5 0 7 7 4
15 -4 8 -3 31 0 50 6 32 9 34 22 20 20 -19 26 -19 45 3 13 15 13 24 4 53 -7
18 -14 34 -16 33 -2 0 -14 -6 -26 -12 -22 -12 -22 -12 -8 23 8 19 15 48 15 64
0 29 1 30 24 19 36 -16 56 -4 56 33 0 23 -5 32 -20 36 -19 5 -19 6 -4 18 31
22 91 11 124 -24 24 -24 39 -31 69 -31 22 0 44 6 51 15 7 8 9 15 5 15 -4 0 -2
6 4 14 6 7 17 48 23 90 7 42 16 76 21 76 4 0 6 -4 3 -9z m-602 -39 c-64 -42
-134 -107 -254 -239 -41 -46 -80 -85 -87 -87 -7 -3 -25 1 -40 9 -15 8 -38 15
-50 15 -12 0 -31 9 -41 20 -17 19 -18 25 -7 57 15 44 10 68 -21 92 -29 23 -18
36 38 46 44 8 71 35 66 66 -3 23 -1 24 142 36 80 6 161 13 180 16 19 2 57 5
84 5 l49 2 -59 -38z m87 16 c-31 -77 -34 -104 -15 -123 20 -19 26 -19 67 5 28
17 38 18 65 8 30 -12 52 -38 31 -38 -6 0 -7 -4 -4 -10 3 -5 0 -10 -7 -10 -10
0 -10 -2 1 -9 11 -7 12 -15 3 -38 -17 -46 -52 -220 -52 -264 0 -22 -9 -57 -20
-79 -24 -46 -26 -62 -5 -34 15 20 19 16 9 -11 -6 -14 -63 -51 -68 -43 -7 10
19 188 28 188 6 0 1 7 -12 15 -13 10 -55 18 -107 22 -47 3 -87 9 -90 12 -3 6
20 100 39 159 5 16 3 22 -7 22 -10 0 -21 -21 -32 -57 -9 -32 -21 -71 -26 -87
-5 -15 -6 -32 -3 -37 2 -5 -4 -14 -14 -20 -11 -7 -18 -19 -16 -28 2 -9 -4 -76
-14 -149 -17 -131 -18 -134 -47 -150 -16 -9 -33 -21 -37 -27 -5 -7 -8 -7 -8 0
0 6 -3 5 -8 -1 -4 -6 -25 -14 -47 -18 l-40 -8 27 21 c14 12 31 21 38 21 6 0 8
5 4 12 -5 8 -2 9 10 5 11 -4 16 -2 14 6 -1 6 9 35 22 62 31 68 32 173 1 233
-12 24 -19 47 -16 52 4 6 -1 7 -11 3 -13 -5 -15 -3 -9 7 5 8 4 11 -1 7 -6 -3
-16 -1 -24 4 -13 8 -13 10 0 20 12 8 9 9 -10 3 -22 -6 -24 -5 -11 10 8 9 20
15 26 12 7 -2 12 3 11 12 0 10 6 16 16 16 9 -1 14 4 12 11 -3 7 8 23 24 37 16
13 35 35 41 47 8 14 18 20 27 17 9 -3 12 -1 9 4 -7 11 19 42 29 35 3 -3 4 -2
1 2 -7 9 46 63 57 57 4 -3 8 0 8 6 0 7 7 10 14 7 9 -4 13 -1 10 6 -6 17 53 60
72 53 7 -3 13 -1 11 3 -1 5 2 8 6 8 5 -1 13 6 18 16 14 24 20 21 10 -5z m-695
-7 c-7 -11 -46 -16 -436 -51 -184 -16 -353 -32 -375 -35 -36 -5 -39 -4 -24 10
16 16 17 17 474 55 138 11 259 22 270 24 42 7 96 6 91 -3z m106 -38 l3 -48
-55 -32 c-30 -18 -67 -33 -82 -33 -16 0 -28 -4 -28 -10 0 -16 46 -12 85 7 32
15 37 16 51 1 22 -22 11 -68 -24 -101 -68 -64 -196 -96 -259 -64 -27 14 -31
23 -36 69 -3 30 0 59 5 66 8 9 3 18 -16 33 -31 25 -61 78 -49 89 4 4 45 10 90
13 l82 5 6 -29 c10 -44 29 -50 22 -6 -6 36 -5 36 31 42 78 13 92 17 92 25 0 5
10 11 23 13 54 10 56 9 59 -40z m59 -305 c66 -70 89 -116 89 -177 0 -89 -54
-175 -126 -199 -41 -13 -78 10 -132 82 -39 51 -132 225 -132 246 0 5 16 10 35
10 45 0 139 36 173 66 15 13 31 24 35 24 5 0 31 -24 58 -52z m59 -3 c40 -21
66 -58 81 -115 7 -27 16 -47 21 -44 12 8 10 68 -4 82 -7 7 -8 12 -2 12 5 0 19
-15 29 -32 23 -39 27 -166 6 -208 -34 -70 -66 -110 -88 -110 -7 0 -13 -4 -13
-9 0 -11 -56 -31 -84 -30 -16 0 -13 3 11 12 18 7 40 20 50 31 17 18 17 18 -7
13 -14 -3 -45 -13 -69 -22 -46 -17 -91 -13 -125 11 -16 11 -11 12 36 7 39 -4
63 -1 85 10 17 9 34 13 38 9 5 -4 5 -2 2 4 -4 6 5 22 19 35 33 31 54 74 64
133 10 62 -17 146 -61 194 -33 36 -31 39 11 17z m468 -100 c2 -1 -2 -51 -9
-109 l-12 -106 -42 0 c-51 0 -105 -17 -105 -34 0 -6 -9 -18 -20 -26 -11 -8
-20 -24 -20 -37 0 -26 -16 -39 -23 -19 -7 17 2 145 16 249 11 73 14 82 37 89
23 6 170 1 178 -7z m498 -31 l66 -17 -5 -36 c-4 -20 -11 -93 -18 -163 l-12
-126 -50 -24 c-52 -24 -125 -30 -162 -14 -11 5 -23 10 -28 10 -4 1 -23 14 -42
29 -34 27 -35 28 -29 90 4 34 15 77 26 95 18 30 19 66 1 60 -14 -5 -16 6 -8
60 l7 52 94 0 c55 0 123 -7 160 -16z m119 -46 c7 -18 23 -44 36 -57 18 -19 19
-25 8 -33 -12 -8 -11 -9 1 -5 8 2 21 -3 28 -12 11 -14 11 -14 6 4 -5 18 -4 18
6 3 8 -13 8 -23 0 -37 -7 -13 -7 -28 0 -45 10 -27 0 -69 -19 -81 -6 -3 -11
-12 -11 -18 0 -7 4 -6 10 3 5 8 10 11 10 6 0 -19 -34 -46 -57 -46 -39 0 -86
-25 -123 -64 -20 -20 -41 -34 -49 -31 -14 6 -128 -22 -146 -36 -13 -10 -69 36
-61 50 4 7 1 9 -8 5 -9 -4 -38 13 -73 41 -32 26 -64 50 -70 52 -7 3 -13 19
-12 37 0 17 3 25 6 19 6 -17 63 12 63 31 0 8 6 16 14 19 11 4 14 -5 13 -40 0
-38 5 -50 26 -69 15 -12 23 -24 19 -27 -4 -2 -1 -2 5 -1 7 2 28 -6 47 -17 28
-16 49 -20 105 -17 39 1 71 5 71 9 0 4 12 10 28 14 58 14 69 28 71 97 1 35 6
97 11 138 5 41 11 90 12 108 1 17 6 32 11 32 4 0 14 -15 22 -32z m443 -54 c28
-12 52 -28 52 -34 0 -6 5 -8 10 -5 6 3 10 2 10 -3 0 -4 8 -17 18 -28 19 -20
42 -76 42 -102 0 -9 -14 6 -32 34 -39 61 -48 44 -13 -24 49 -93 40 -166 -27
-228 -36 -33 -88 -59 -88 -44 0 5 8 11 18 14 27 9 68 56 81 95 52 157 -115
304 -281 245 -24 -8 -60 -32 -82 -52 -38 -37 -38 -37 -23 -7 19 36 74 81 111
91 31 7 34 20 6 27 -11 3 -18 2 -16 -2 3 -4 -12 -13 -32 -21 -20 -7 -40 -18
-44 -24 -6 -8 -8 -8 -8 1 0 19 67 65 123 84 59 20 101 16 175 -17z m-51 -108
c55 -26 103 -83 103 -124 0 -38 -28 -88 -78 -138 -42 -42 -155 -134 -164 -134
-2 0 -4 9 -5 21 -6 74 -64 153 -135 184 -24 11 -45 20 -47 21 -2 2 16 29 39
61 94 127 179 159 287 109z m-1002 -47 c36 -28 65 -55 65 -59 0 -5 -10 -10
-22 -12 -28 -4 -88 -82 -88 -114 0 -14 -6 -24 -14 -24 -9 0 -13 12 -12 41 1
52 -36 89 -90 89 l-35 0 17 33 c20 39 80 97 100 97 8 0 44 -23 79 -51z m171
-174 c63 -47 114 -87 114 -90 0 -3 -15 -25 -34 -49 -19 -25 -36 -50 -38 -57
-5 -15 -20 -7 -79 43 -24 20 -64 53 -89 73 -25 20 -53 43 -62 51 -10 7 -18 17
-18 22 0 17 62 92 77 92 8 0 66 -38 129 -85z m-300 33 c19 -18 36 -47 40 -64
5 -27 0 -38 -31 -72 -20 -23 -45 -44 -55 -47 -48 -15 -140 62 -140 118 0 17
14 42 37 68 34 38 40 41 77 36 27 -4 50 -16 72 -39z m797 -39 c87 -24 145
-115 134 -210 -7 -54 -25 -82 -68 -105 l-27 -13 5 58 c3 33 0 75 -6 94 -16 49
-80 112 -130 128 -48 16 -53 29 -20 46 29 16 62 16 112 2z m-645 -83 c15 -13
22 -31 22 -56 0 -35 -1 -36 -36 -36 -25 0 -42 -7 -54 -22 -17 -20 -24 -21 -99
-15 -75 5 -114 20 -82 31 11 4 11 6 1 12 -8 5 -3 7 13 7 14 -1 23 -5 20 -9 -2
-5 1 -8 6 -8 6 0 11 5 11 10 0 6 6 10 13 10 18 0 63 39 59 52 -1 5 2 7 8 3 5
-3 10 -1 10 5 0 8 6 8 20 0 16 -9 18 -8 14 5 -4 8 -10 15 -15 15 -18 0 -8 21
14 29 23 9 31 5 75 -33z m478 -7 c77 -44 163 -144 179 -209 4 -19 -2 -33 -26
-59 l-31 -35 -13 32 c-35 82 -154 198 -251 244 l-56 26 38 21 c48 26 89 21
160 -20z m-141 -47 c46 -23 151 -109 183 -150 30 -38 66 -102 60 -107 -2 -1
-12 -7 -23 -13 -11 -5 -29 -33 -39 -60 -17 -43 -23 -49 -38 -41 -26 14 -33 71
-14 125 19 56 19 54 7 54 -13 0 -41 -75 -41 -110 0 -35 -17 -39 -48 -10 -24
23 -29 69 -10 88 7 7 9 12 5 12 -4 0 2 18 13 40 15 30 17 40 7 40 -16 0 -43
-54 -52 -104 -9 -46 -19 -52 -52 -31 -23 16 -25 21 -20 69 3 29 15 68 26 87
27 44 29 71 2 44 -21 -23 -51 -96 -51 -125 0 -26 -20 -25 -48 0 -38 35 -22
106 41 192 22 30 33 30 92 0z m548 -88 l-16 -46 30 -30 c28 -28 32 -29 70 -19
37 10 42 15 52 56 13 52 25 56 46 15 31 -60 6 -129 -56 -157 -32 -14 -41 -24
-50 -57 -31 -120 -42 -152 -57 -163 -25 -20 -35 -15 -18 9 25 35 20 75 -11
103 -16 13 -34 25 -42 25 -9 0 -11 7 -7 23 18 64 18 76 -4 107 -23 33 -23 44
5 120 17 47 29 60 57 60 16 0 16 -3 1 -46z m-758 -129 l0 -150 -92 -3 -93 -3
0 140 c0 77 3 147 6 156 5 13 21 15 93 13 l86 -3 0 -150z m-269 106 c-3 -4 11
-5 30 -3 20 2 34 0 34 -6 0 -6 -17 -13 -37 -15 l-38 -4 41 -1 c35 -2 40 -5 39
-23 -1 -11 -8 -25 -16 -30 -11 -7 -10 -9 6 -9 28 0 6 -18 -30 -23 l-30 -4 33
-2 c30 -1 32 -3 32 -41 l0 -39 -58 2 -58 2 4 93 c2 76 1 92 -12 92 -8 0 -17 3
-19 8 -3 4 15 8 39 8 24 1 42 -1 40 -5z m914 -211 c66 -50 120 -96 120 -103 0
-30 -80 -127 -104 -127 -7 0 -21 8 -32 18 -10 9 -54 47 -98 82 -43 36 -90 74
-103 85 -22 18 -23 23 -12 47 6 15 26 34 44 42 18 9 38 22 45 31 7 8 14 15 16
15 2 0 57 -41 124 -90z m-848 -37 c13 -27 16 -28 108 -31 88 -3 96 -1 113 19
17 21 25 22 150 20 116 -2 134 -4 150 -22 10 -10 24 -19 32 -19 18 0 18 -1 5
-34 -5 -14 -10 -143 -11 -286 -1 -213 -4 -260 -15 -260 -8 0 -14 5 -14 10 0 6
-5 10 -11 10 -5 0 -7 -4 -4 -10 3 -5 2 -10 -4 -10 -17 0 -23 -75 -12 -156 6
-44 12 -132 13 -196 2 -64 6 -109 11 -100 4 9 5 -26 2 -80 -3 -57 -1 -107 5
-124 9 -23 8 -31 -4 -40 -17 -12 -22 -34 -7 -34 5 0 23 -3 41 -7 27 -5 32 -3
28 9 -5 11 1 13 26 10 27 -4 28 -6 11 -13 -16 -6 -13 -8 13 -8 30 -1 33 1 28
22 -3 12 -3 16 0 10 3 -7 24 -13 47 -14 34 0 38 -2 22 -10 -15 -7 -12 -8 12
-3 21 3 40 0 54 -10 21 -14 21 -15 -12 -19 l-34 -4 37 -1 c21 -1 38 3 40 10 3
7 8 -20 12 -61 3 -41 4 -76 1 -79 -3 -3 -5 6 -5 21 0 46 -10 57 -51 57 -21 0
-39 -4 -39 -10 0 -5 18 -10 40 -10 l40 0 0 -50 0 -50 -80 0 c-47 0 -80 4 -80
10 0 6 -18 10 -39 10 l-39 0 -4 46 c-2 25 -1 47 1 50 2 2 22 4 43 4 21 0 38 5
38 11 0 6 9 8 23 4 21 -6 21 -6 -3 14 -29 24 -92 28 -109 7 -6 -7 -25 -16 -41
-20 l-30 -6 0 -95 0 -95 160 0 160 0 1 -42 c1 -41 2 -41 9 -13 5 18 6 4 3 -37
-4 -46 -2 -68 5 -68 8 0 11 39 10 122 -2 83 -4 108 -9 78 l-6 -45 -1 42 c-1
23 3 45 8 48 14 9 12 146 -3 170 -7 11 -22 21 -34 22 -12 2 -37 9 -55 17 l-33
14 39 -5 c22 -4 41 -1 45 5 3 5 15 12 26 14 18 3 21 -6 32 -87 6 -49 12 -169
12 -265 1 -96 6 -218 12 -270 16 -130 5 -198 -36 -221 -72 -42 -379 -50 -490
-13 -62 21 -72 29 -56 48 7 9 10 30 7 53 -5 37 -5 37 6 -5 9 -36 9 -45 -3 -53
-11 -7 -10 -9 6 -10 11 -1 27 -1 35 0 12 2 12 0 2 -7 -21 -14 65 -24 248 -28
107 -2 160 0 150 6 -8 5 -24 10 -35 11 -16 1 -16 2 5 8 23 7 21 8 -17 15 -54
10 -62 20 -17 23 23 1 32 -2 28 -9 -5 -7 0 -9 14 -6 14 4 20 2 16 -4 -4 -6 6
-8 27 -4 l34 6 -35 -15 -35 -14 55 4 c58 4 80 21 80 61 0 12 3 29 6 38 3 9 1
16 -5 16 -6 0 -11 -10 -12 -22 0 -22 -1 -22 -9 -3 -8 21 -13 15 -23 -30 -3
-11 -4 -1 -4 21 2 29 6 40 15 37 7 -3 12 3 12 13 0 16 2 17 10 4 7 -11 9 1 8
38 0 30 -4 48 -8 42 -4 -7 -8 18 -8 55 -1 68 -11 107 -13 44 0 -19 -4 -43 -9
-54 -6 -13 -9 14 -9 78 l-1 97 -40 0 c-29 0 -40 4 -40 15 0 11 -11 15 -40 15
-33 0 -40 3 -40 20 0 17 -7 20 -40 20 -22 0 -40 -4 -40 -10 0 -5 -18 -10 -40
-10 -22 0 -40 -4 -40 -10 0 -6 -33 -10 -80 -10 l-80 0 0 -55 0 -55 48 0 47 -1
-34 -28 c-32 -26 -35 -32 -32 -80 1 -39 -1 -51 -13 -51 -8 0 -17 8 -20 18 -3
9 -4 -13 -3 -50 2 -37 -1 -62 -5 -55 -4 6 -7 64 -7 127 1 63 4 105 7 92 4 -13
6 47 6 133 -1 86 -4 159 -8 162 -3 3 -6 -18 -6 -48 -1 -111 -12 -394 -17 -399
-4 -4 6 597 11 701 2 41 0 46 -16 41 -15 -4 -18 -15 -18 -71 0 -36 -3 -77 -7
-91 -3 -14 -2 -21 3 -17 4 4 12 29 16 55 5 37 6 34 2 -18 -3 -36 -5 -217 -6
-402 -1 -186 -4 -335 -7 -332 -3 3 -9 168 -12 367 -4 199 -11 418 -17 487 -6
69 -14 271 -17 450 -3 179 -8 339 -10 355 -2 17 -4 36 -4 43 -1 6 -6 12 -11
12 -7 0 -9 -52 -5 -157 9 -239 11 -645 4 -583 -6 49 -6 47 -3 -15 2 -38 6 -83
8 -100 5 -28 5 -28 -4 -5 -8 21 -9 19 -5 -15 3 -22 5 -49 6 -60 l0 -20 9 20
c14 32 12 -45 -1 -86 -15 -44 -28 -58 -21 -23 3 19 1 25 -7 20 -14 -9 -15 -53
-1 -61 6 -3 10 -18 9 -33 l-1 -27 -9 25 c-7 20 -7 17 -3 -12 7 -51 -5 -108
-22 -108 -10 0 -14 -12 -14 -37 0 -55 16 -73 18 -21 1 23 6 44 10 47 10 7 34
105 34 143 1 15 5 25 10 22 5 -3 6 6 2 19 -3 14 -1 34 5 44 22 38 11 -75 -18
-189 -16 -63 -37 -163 -46 -223 -9 -61 -18 -121 -20 -135 -2 -14 -6 -42 -9
-62 -3 -20 -13 -55 -22 -77 -20 -50 -43 -56 -193 -49 -124 6 -275 40 -346 78
-45 24 -50 31 -53 66 -7 76 -3 100 22 156 34 74 56 158 61 238 12 172 18 221
38 299 12 47 28 86 34 88 9 3 10 -3 4 -24 -30 -96 -41 -152 -51 -263 -6 -69
-13 -138 -16 -155 -2 -16 -7 -52 -10 -79 -3 -27 -12 -56 -20 -64 -9 -8 -12
-22 -8 -34 4 -13 2 -18 -4 -14 -36 22 -57 -142 -22 -175 33 -32 123 -67 157
-61 7 2 24 -5 37 -14 20 -13 56 -16 178 -18 143 -2 154 -1 171 18 10 11 16 28
14 38 -3 9 0 19 5 20 6 2 13 40 16 83 2 44 9 85 14 92 5 7 7 16 4 21 -3 5 -1
23 4 41 9 33 3 101 -10 101 -4 0 -10 -13 -12 -29 -3 -18 0 -28 5 -24 6 4 7 -3
3 -18 -4 -13 -9 -55 -12 -94 -3 -38 -9 -74 -15 -80 -6 -6 -7 8 -3 38 6 45 6
47 -19 47 -24 0 -25 -2 -20 -40 5 -32 2 -40 -10 -40 -8 0 -17 -6 -20 -12 -2
-7 -8 -9 -13 -5 -5 4 -3 11 3 15 7 4 15 27 19 50 5 35 10 42 29 42 22 0 35 22
35 60 0 12 -2 12 -9 2 -6 -11 -10 -11 -19 0 -7 10 -7 24 1 51 13 41 26 49 28
15 1 -22 1 -22 9 2 12 36 12 100 0 100 -5 0 -10 -8 -10 -19 0 -16 -5 -17 -42
-11 -30 6 -48 4 -64 -7 -20 -13 -23 -12 -32 4 -6 10 -14 17 -19 15 -4 -2 -9 1
-11 7 -5 14 25 14 33 1 3 -5 15 -10 26 -10 17 0 19 8 19 90 l0 90 40 0 40 0 0
40 0 40 -160 0 -160 0 0 50 0 50 -40 0 -40 0 0 -50 c0 -27 -4 -50 -9 -50 -10
0 -21 34 -21 65 0 17 2 18 10 5 8 -11 9 -8 4 12 -9 40 3 67 26 61 11 -3 30 -3
43 1 20 5 23 11 21 46 -2 47 -14 68 -14 25 0 -16 -3 -26 -6 -22 -3 3 -3 34 2
69 5 47 9 57 14 38 3 -14 7 9 8 55 1 44 8 112 17 150 8 39 15 90 15 115 0 28
3 40 9 32 6 -10 10 -4 15 18 8 44 5 72 -4 35 -7 -27 -8 -24 -9 18 -1 34 5 57
19 77 27 38 47 155 55 325 7 154 7 231 -1 258 -5 15 2 17 45 17 45 0 51 -3 63
-27z m-142 -231 c-6 -81 -13 -158 -15 -172 -2 -14 -4 -42 -4 -63 -1 -21 -6
-36 -12 -35 -14 4 -36 -29 -26 -39 5 -4 12 -1 17 7 6 9 10 10 10 3 0 -20 -20
-26 -37 -11 -15 11 -16 10 -11 -9 4 -13 3 -23 -2 -23 -4 0 -7 37 -7 83 1 75
13 78 16 3 1 -16 4 -26 8 -22 11 11 3 90 -10 98 -19 12 -24 0 -33 -74 l-8 -73
-6 75 c-4 48 -7 60 -8 33 -1 -24 -5 -43 -10 -43 -4 0 -5 33 -2 73 3 39 3 101
0 137 l-5 65 -55 1 c-69 1 -120 12 -121 27 -3 28 0 82 5 103 6 22 7 22 40 9
44 -19 209 -14 251 6 25 12 31 12 33 1 2 -8 -1 -80 -8 -160z m776 102 c21 -9
64 -20 96 -24 37 -5 69 -18 91 -34 42 -32 57 -33 86 -2 14 15 40 27 65 31 22
4 46 11 52 16 9 7 10 -7 7 -53 -3 -35 -11 -66 -17 -70 -8 -6 -7 -8 2 -8 6 0
12 -4 12 -10 0 -15 -17 -12 -36 7 -16 16 -16 16 -10 -4 7 -21 4 -21 -76 -22
-80 0 -152 14 -198 39 -12 7 -26 8 -31 3 -4 -4 -11 -78 -15 -163 -6 -159 -8
-170 -25 -170 -6 0 -8 4 -5 9 10 15 -18 19 -33 4 -7 -8 -15 -13 -16 -11 -4 4
-8 408 -5 423 1 6 1 20 0 33 -2 26 5 27 56 6z m-1059 -112 c26 -6 62 -10 78
-9 l30 2 0 -89 c1 -91 -22 -269 -24 -193 -1 20 -5 37 -11 37 -5 0 -10 8 -11
18 0 13 -2 14 -6 2 -3 -8 -13 -21 -22 -29 -12 -10 -13 -15 -3 -18 6 -3 12 -9
12 -14 0 -5 -17 -2 -37 6 -35 15 -39 15 -52 -2 -13 -17 -13 -17 -7 0 3 11 3
24 -1 30 -4 7 -9 4 -13 -8 -6 -18 -7 -17 -12 3 -4 12 -2 20 3 16 5 -3 7 14 4
38 -13 122 -14 160 -9 201 6 38 9 44 20 33 7 -8 35 -18 61 -24z m1332 -87
l144 0 -8 -80 c-4 -44 -7 -93 -6 -108 0 -18 -4 -25 -11 -21 -8 5 -9 -3 -5 -27
5 -22 4 -29 -2 -20 -7 11 -12 7 -20 -20 -10 -32 -11 -32 -6 16 2 31 1 40 -3
25 -7 -21 -15 -26 -50 -28 -23 -2 -42 -7 -42 -13 0 -12 -70 -12 -90 1 -9 6
-20 5 -29 -3 -12 -10 -13 -9 -6 3 7 13 6 13 -7 2 -17 -14 -18 -13 -44 36 -10
20 -14 22 -14 9 0 -10 7 -25 15 -33 16 -17 21 -39 6 -30 -5 4 -11 3 -14 -1 -2
-5 -2 -2 0 6 2 8 0 17 -5 20 -5 3 -12 29 -15 56 -5 35 -4 44 3 30 9 -20 6 37
-6 93 -2 12 -2 45 2 72 l6 49 32 -17 c25 -13 60 -16 175 -17z m-301 -325 c18
-11 38 -20 45 -20 6 0 24 -6 39 -14 16 -8 30 -10 35 -5 6 6 19 6 34 0 24 -10
24 -10 1 -10 -12 -1 -31 -7 -42 -13 -16 -11 -22 -9 -34 7 -8 11 -18 17 -22 12
-4 -4 -2 -7 4 -7 7 0 12 -7 12 -15 0 -8 6 -15 13 -15 8 0 9 -2 1 -8 -6 -4 -14
-17 -18 -29 -6 -18 -4 -22 8 -17 20 8 20 -3 1 -22 -11 -11 -26 -14 -59 -9 -43
7 -44 7 -53 58 -9 46 -11 48 -12 17 -2 -41 -15 -28 -32 33 -5 21 -12 44 -15
52 -4 9 4 15 23 18 15 2 30 5 33 5 3 1 20 -7 38 -18z m250 -213 c2 -15 -1 -27
-7 -27 -7 0 -11 -30 -10 -82 1 -56 4 -75 9 -58 5 16 8 -15 8 -83 1 -91 -1
-108 -14 -103 -16 6 -19 -5 -4 -20 6 -6 2 -14 -11 -22 -12 -8 -18 -9 -15 -3 3
5 1 11 -6 14 -7 2 -5 3 5 2 19 -3 19 -3 11 19 -3 9 -13 16 -21 16 -8 0 -11 -4
-8 -10 6 -11 -42 -26 -52 -16 -4 3 1 6 10 6 10 0 17 5 17 11 0 7 -9 9 -22 5
-13 -3 -43 -7 -68 -7 -37 -2 -39 -3 -12 -6 17 -2 32 -9 32 -15 0 -7 -20 -8
-62 -4 -64 8 -76 12 -66 22 11 10 151 26 204 22 49 -3 53 -1 57 22 3 14 1 59
-3 100 l-7 75 -2 -62 -1 -63 -76 0 c-55 0 -80 -4 -91 -16 -9 -8 -22 -13 -30
-10 -8 3 -21 6 -29 6 -10 0 -13 7 -10 23 3 12 8 43 11 70 6 43 25 68 25 31 0
-8 5 -12 10 -9 6 3 10 19 10 36 0 25 -4 29 -29 29 -26 0 -29 -3 -35 -47 -3
-27 -10 -70 -15 -98 -9 -50 -9 -50 -6 18 1 37 -1 67 -5 67 -11 0 -21 135 -12
161 5 12 11 18 15 13 10 -17 199 -5 233 14 33 20 69 9 72 -21z m-998 -667 l0
-80 -80 0 c-71 0 -80 2 -80 19 0 10 -3 46 -6 80 l-7 61 87 0 86 0 0 -80z
m-288 -546 c20 -8 39 -22 42 -30 3 -8 13 -14 23 -13 16 0 16 1 -2 9 -26 11 3
12 30 1 18 -8 16 -10 -15 -20 l-35 -11 40 7 c54 8 98 5 106 -9 4 -6 12 -7 18
-4 6 4 18 3 27 -2 12 -6 0 -11 -42 -15 -31 -3 -61 -11 -65 -18 -6 -10 -13 -10
-31 -2 -21 11 -21 12 -3 13 17 2 16 3 -5 10 -14 4 -40 8 -57 9 -23 1 -33 6
-33 17 0 10 -7 14 -17 12 -10 -2 -17 -10 -15 -18 3 -13 -15 -30 -33 -30 -5 0
-4 4 4 9 10 7 11 13 1 31 -11 20 -10 22 4 17 20 -8 21 6 2 22 -11 9 -15 9 -19
-1 -2 -7 -4 4 -4 24 1 36 2 37 21 23 12 -8 38 -22 58 -31z m1322 -78 c-3 -9
-10 -14 -14 -11 -5 3 -5 -9 0 -26 8 -27 6 -32 -11 -36 -10 -3 -18 -12 -17 -21
2 -8 -3 -17 -11 -20 -8 -3 -11 0 -7 7 11 17 0 13 -20 -6 -17 -17 -18 -17 -11
0 9 25 -8 21 -21 -5 -11 -21 -12 -21 -9 -3 1 11 12 24 25 30 56 25 -11 39
-103 21 -40 -7 -40 -7 -15 9 l25 16 -34 -5 c-18 -3 -46 -6 -62 -6 -16 0 -29
-4 -29 -9 0 -13 117 -22 146 -10 33 12 51 -1 36 -26 -6 -12 -25 -19 -58 -21
-43 -2 -45 -2 -19 7 17 5 38 7 48 5 11 -3 17 0 14 7 -4 13 -12 13 -92 1 -63
-8 -60 -8 -120 -1 -33 4 -42 3 -25 -3 l25 -8 -27 -1 c-18 -1 -28 4 -28 13 0
15 21 26 51 26 10 0 19 5 19 10 0 6 -11 10 -25 10 -14 0 -25 -5 -25 -11 0 -15
-71 -4 -81 12 -4 7 -14 9 -25 4 -16 -6 -12 -10 21 -20 l40 -13 -41 -1 c-22 -1
-46 5 -52 11 -8 8 -15 9 -20 3 -4 -6 -14 -10 -22 -10 -8 0 -14 -7 -12 -15 1
-9 -5 -6 -15 7 -21 26 -23 88 -3 88 7 0 18 -9 24 -20 6 -11 15 -23 21 -27 12
-9 27 1 19 13 -3 5 -10 7 -15 4 -5 -4 -9 0 -9 8 0 12 13 10 65 -9 36 -13 76
-24 88 -23 22 1 22 1 -1 7 -13 4 39 7 115 6 93 -1 151 3 177 12 47 17 44 17
49 -3 4 -15 5 -15 6 2 1 12 14 26 34 35 38 18 39 18 31 -4z m-784 5 c0 -6 -5
-13 -10 -16 -6 -4 -8 -10 -6 -13 2 -4 -2 -18 -9 -32 -12 -23 -16 -24 -116 -21
-59 2 -107 7 -110 13 -5 8 -19 8 -47 1 -25 -7 -59 -7 -86 -2 -25 5 -54 6 -63
3 -16 -5 -16 -4 0 6 10 7 41 10 68 8 34 -2 49 1 49 10 0 6 -6 13 -12 13 -36 4
137 21 197 20 39 -1 84 3 100 8 40 12 45 13 45 2z m-677 -132 c29 -24 37 -38
37 -63 0 -17 5 -37 12 -44 18 -18 52 -14 67 7 8 11 20 17 27 14 17 -6 54 15
54 31 0 9 7 12 19 9 22 -5 51 21 51 47 0 16 4 17 38 8 20 -5 100 -12 177 -16
l140 -7 3 -43 c2 -24 -2 -68 -8 -99 -14 -66 -44 -98 -104 -114 -23 -6 -104
-31 -181 -57 -126 -42 -151 -47 -251 -50 -169 -6 -268 30 -308 112 -57 116
-14 213 123 278 51 23 62 22 104 -13z m976 -29 c29 0 44 -17 47 -56 12 -141
41 -179 89 -118 19 23 29 26 108 31 82 6 89 4 103 -16 17 -23 46 -28 61 -8 14
18 24 49 14 43 -11 -7 -21 17 -21 49 0 13 -4 27 -10 30 -18 11 -11 51 9 52 30
2 114 -183 119 -264 8 -119 -49 -202 -164 -238 -82 -26 -212 -18 -280 18 -120
61 -184 200 -169 367 10 117 12 123 48 116 16 -3 37 -6 46 -6z"/>
<path d="M2818 4731 c-28 -25 -33 -36 -32 -72 2 -57 37 -89 99 -89 36 0 47 5
69 31 41 48 29 117 -25 145 -42 21 -75 17 -111 -15z m96 -23 c13 -86 14 -106
3 -117 -15 -15 -47 -14 -47 2 0 8 -4 7 -10 -3 -9 -13 -14 -11 -35 13 -26 30
-32 66 -15 98 18 32 38 23 43 -18 3 -35 4 -34 5 10 2 43 4 47 27 47 20 0 25
-6 29 -32z"/>
<path d="M1385 4594 c-20 -4 -166 -16 -615 -54 -129 -11 -254 -22 -277 -25
l-42 -6 6 -52 c3 -29 6 -53 7 -53 1 -1 44 2 96 7 52 4 124 11 160 14 36 3 216
19 400 35 184 17 337 30 340 30 3 0 3 25 2 55 -4 59 -7 61 -77 49z m35 -69 c0
-14 -3 -25 -7 -25 -5 0 -102 -9 -217 -20 -116 -10 -214 -17 -218 -14 -13 8 -9
44 5 49 15 6 315 32 385 34 49 1 52 0 52 -24z"/>
<path d="M235 4505 c-58 -59 -13 -165 70 -165 82 0 126 103 70 164 -34 37
-103 37 -140 1z"/>
<path d="M1630 3152 c0 -10 -5 -23 -12 -30 -9 -9 -9 -15 0 -24 16 -16 15 -61
0 -76 -10 -10 -10 -17 0 -32 6 -11 12 -27 12 -35 0 -12 13 -15 60 -15 l60 0 0
115 0 115 -60 0 c-51 0 -60 -3 -60 -18z"/>
</g>
</svg>
