<?xml version="1.0" standalone="no"?>
<!DOCTYPE svg PUBLIC "-//W3C//DTD SVG 20010904//EN"
 "http://www.w3.org/TR/2001/REC-SVG-20010904/DTD/svg10.dtd">
<svg version="1.0" xmlns="http://www.w3.org/2000/svg"
 width="474.000000pt" height="315.000000pt" viewBox="0 0 474.000000 315.000000"
 preserveAspectRatio="xMidYMid meet">

<g transform="translate(0.000000,315.000000) scale(0.100000,-0.100000)"
fill="#000000" stroke="none">
<path d="M2227 3010 c-66 -26 -146 -90 -181 -144 -23 -37 -38 -48 -70 -57
-242 -65 -456 -188 -631 -364 -185 -185 -297 -384 -360 -634 -164 -656 175
-1331 801 -1593 179 -74 262 -90 489 -96 159 -3 219 -1 288 12 114 22 251 67
355 117 l83 40 35 -26 c135 -103 397 -109 588 -13 143 71 171 117 170 273 -2
165 -41 335 -117 498 l-40 88 16 72 c74 321 19 681 -151 982 -53 95 -167 239
-250 316 -135 124 -275 209 -499 301 -22 9 -44 31 -65 68 -41 67 -118 131
-192 159 -74 28 -200 28 -269 1z m247 -73 c84 -39 115 -118 59 -154 -24 -16
-53 -18 -240 -18 -117 0 -213 1 -213 3 0 2 12 28 27 58 28 58 76 107 127 130
48 22 172 12 240 -19z m-445 -169 c-6 -13 -29 -39 -51 -59 -48 -42 -46 -65 6
-93 38 -20 55 -70 28 -81 -12 -4 -14 -18 -9 -63 8 -69 33 -156 50 -174 16 -17
67 -156 67 -184 0 -12 -26 -47 -64 -85 -34 -35 -67 -71 -72 -80 -5 -9 -91 -50
-191 -91 l-182 -75 -23 25 c-35 38 -99 82 -120 82 -16 0 -18 -10 -18 -110 l0
-110 -36 -15 c-29 -12 -45 -13 -75 -5 -21 6 -41 15 -44 21 -4 5 -24 55 -45
110 l-38 101 -25 -34 c-65 -85 -91 -205 -64 -299 26 -88 65 -132 158 -175 59
-28 79 -42 75 -53 -40 -125 -90 -316 -111 -418 -14 -70 -28 -139 -31 -152 l-5
-24 -15 22 c-8 11 -13 25 -10 29 3 5 9 28 15 51 l9 42 -41 -5 -42 -6 30 15
c17 8 35 14 41 15 6 0 16 18 22 40 10 39 9 40 -17 39 -14 0 -47 -4 -73 -8 -27
-4 -48 -4 -48 0 0 8 89 29 126 29 25 0 28 3 39 54 l6 28 -106 -7 c-66 -4 -105
-3 -105 3 0 5 47 13 105 17 l106 7 13 31 c7 18 11 35 9 40 -2 4 -62 7 -134 7
-79 0 -129 4 -129 10 0 6 53 10 139 10 l139 0 6 27 c4 15 3 29 -4 33 -6 4 -75
12 -153 19 -135 12 -156 16 -146 25 4 5 218 -10 280 -19 31 -4 37 -1 47 20 11
23 9 27 -21 40 -17 8 -95 26 -171 40 -77 14 -142 28 -145 31 -6 6 19 4 149
-12 l50 -7 -32 51 c-30 45 -38 51 -88 62 -64 14 -97 29 -65 30 11 0 37 -5 58
-11 22 -6 41 -9 43 -7 2 2 -2 26 -9 52 -11 44 -16 50 -57 67 -47 19 -32 27 16
9 15 -6 28 -9 29 -8 1 2 6 24 9 51 7 47 7 48 -28 62 -19 8 -37 19 -41 25 -9
14 5 12 35 -5 14 -8 31 -14 37 -15 11 0 59 78 51 85 -2 1 -25 15 -51 30 -63
36 -52 46 12 12 l49 -27 31 39 31 39 -57 38 c-70 45 -67 43 -62 49 3 2 76 -43
164 -100 88 -57 161 -102 164 -99 2 2 4 22 3 45 -1 29 -9 46 -24 60 -13 10
-74 60 -135 111 -62 50 -113 95 -113 100 0 5 6 3 13 -4 8 -7 29 -24 47 -38 18
-14 71 -55 119 -92 47 -38 95 -68 106 -68 31 -1 96 -34 143 -74 24 -20 49 -36
55 -36 7 1 -87 97 -208 215 -121 118 -217 215 -213 215 4 0 13 -6 20 -12 7 -7
74 -69 148 -138 74 -69 163 -152 198 -185 35 -33 70 -64 78 -68 18 -10 54 0
54 16 0 7 -33 48 -73 93 -39 44 -99 111 -132 149 -33 38 -84 96 -114 130 -29
33 -62 73 -73 90 -18 27 -17 27 12 -5 104 -112 138 -149 268 -292 79 -87 147
-158 151 -158 4 0 15 6 25 13 17 12 16 16 -16 58 -77 101 -344 464 -352 478
-23 43 48 -46 214 -264 101 -132 186 -244 190 -248 4 -5 17 -4 29 2 26 14 36
-6 -134 271 -72 118 -144 236 -159 263 -51 86 -20 49 55 -68 269 -419 287
-444 308 -438 12 3 21 9 21 15 0 5 -70 146 -156 314 -85 168 -153 308 -151
310 3 3 78 -134 167 -303 89 -169 164 -310 165 -311 2 -2 11 7 19 20 15 24 13
32 -55 199 -116 284 -189 473 -180 463 5 -5 50 -106 101 -224 126 -297 163
-384 167 -389 2 -3 12 5 24 17 l20 22 -97 311 c-53 170 -94 312 -92 314 2 2
48 -129 102 -293 54 -163 102 -301 107 -306 16 -17 22 26 10 63 -7 20 -31 74
-54 121 -41 83 -42 87 -43 193 0 102 -1 108 -25 124 -64 44 -63 69 4 138 56
57 86 72 66 33z m702 -39 c4 -13 8 -51 9 -84 l2 -60 15 43 c18 52 30 49 13 -4
-10 -29 -10 -52 0 -108 19 -113 -4 -213 -61 -261 -27 -22 -33 -34 -32 -63 1
-31 17 -62 26 -51 2 2 30 72 61 154 94 244 139 355 143 351 3 -3 -149 -429
-181 -506 -4 -10 3 -25 18 -40 l26 -23 125 256 c68 142 127 257 129 257 7 0
-11 -40 -129 -294 -58 -124 -105 -232 -105 -240 0 -7 8 -20 18 -29 17 -15 24
-5 137 183 66 110 132 220 146 245 29 51 61 89 39 45 -7 -14 -75 -135 -152
-268 -76 -134 -138 -247 -138 -252 0 -4 10 -10 23 -14 27 -7 19 -18 214 256
85 120 160 218 165 218 5 0 -9 -24 -30 -52 -21 -29 -74 -105 -117 -168 -43
-63 -103 -150 -132 -192 l-55 -78 29 -11 c26 -9 31 -7 63 29 37 42 140 163
255 300 39 45 74 82 78 82 5 0 -20 -35 -55 -77 -35 -43 -86 -105 -114 -139
-27 -33 -77 -95 -112 -137 l-63 -77 26 -10 c14 -6 29 -10 33 -10 4 0 87 80
184 177 98 98 178 173 178 168 -1 -6 -77 -89 -170 -185 -162 -167 -168 -175
-147 -187 12 -7 27 -12 33 -13 9 0 209 162 317 257 16 13 31 22 34 19 3 -3 -9
-18 -28 -33 -83 -70 -284 -247 -287 -253 -1 -3 13 -12 33 -19 l35 -12 151 106
c83 59 153 104 156 102 4 -5 -43 -41 -207 -161 l-81 -59 22 -23 c12 -13 26
-24 31 -24 5 0 67 34 139 76 71 42 132 74 135 72 5 -5 -23 -24 -171 -113 -44
-27 -81 -49 -83 -51 -5 -4 41 -54 50 -54 4 0 60 24 123 54 63 30 115 51 115
47 0 -4 -46 -30 -102 -59 -135 -67 -132 -65 -119 -88 26 -46 23 -46 130 -4
101 39 134 49 116 31 -9 -7 -110 -51 -189 -81 -26 -10 -27 -10 -10 -42 9 -18
17 -34 18 -35 1 -2 38 8 82 22 80 25 134 33 104 16 -8 -5 -51 -19 -95 -32 -44
-12 -82 -24 -83 -25 -6 -4 19 -74 26 -74 4 1 36 7 72 15 75 16 103 18 96 7 -3
-5 -36 -14 -73 -21 -88 -16 -92 -18 -81 -60 l9 -34 64 6 c36 3 67 2 70 -2 2
-5 -24 -12 -60 -16 -36 -3 -65 -9 -65 -12 0 -3 9 -21 21 -39 17 -28 27 -34 55
-34 21 0 33 -4 29 -10 -3 -6 -15 -10 -26 -10 -22 0 -23 -6 -4 -40 15 -27 20
-60 8 -60 -20 1 -108 178 -148 299 -55 162 -94 238 -162 311 -45 49 -70 65
-176 113 -69 31 -161 69 -207 84 -76 26 -84 31 -116 79 -19 28 -60 73 -91 101
l-58 50 3 61 c3 52 7 61 25 66 29 7 52 47 66 114 17 82 14 155 -8 183 -23 30
-40 194 -19 187 7 -3 15 -15 19 -29z m-261 -9 c47 -11 89 -25 94 -30 13 -13
-54 -50 -91 -50 -18 0 -67 12 -110 26 -101 34 -237 43 -314 21 -29 -9 -55 -15
-57 -13 -7 7 61 49 101 62 61 20 268 12 377 -16z m124 -108 c-4 -27 -1 -49 10
-70 9 -17 16 -40 16 -52 0 -27 26 -26 41 3 36 69 69 65 69 -7 0 -51 -26 -145
-46 -165 -12 -13 -16 -12 -32 3 -19 16 -20 15 -26 -24 -16 -103 -88 -200 -184
-246 -49 -24 -155 -25 -199 -1 -44 24 -92 97 -120 184 -29 93 -30 123 -4 116
18 -4 17 -2 -5 44 -13 26 -24 62 -24 80 0 53 21 134 37 140 8 3 60 -2 115 -12
130 -23 225 -17 298 18 30 14 56 26 58 26 1 1 -1 -16 -4 -37z m142 -658 c30
-60 37 -86 41 -157 3 -46 3 -101 -1 -120 l-7 -35 -65 34 c-91 47 -167 42 -218
-15 -25 -28 -16 -35 31 -22 54 15 92 13 138 -8 74 -33 74 -34 50 -157 l-21
-109 -269 3 c-149 1 -289 4 -312 8 l-42 5 -41 122 -41 122 33 28 c56 47 144
29 196 -40 6 -9 12 -12 12 -7 0 13 -66 124 -85 143 -21 21 -70 16 -122 -13
-25 -15 -48 -24 -51 -22 -11 12 51 177 93 249 26 44 48 77 51 75 2 -3 12 -47
23 -99 24 -115 40 -158 127 -331 l66 -133 62 123 c60 120 62 122 125 159 105
63 150 136 151 247 0 59 0 59 20 41 12 -11 37 -51 56 -91z m-494 48 c40 -19
53 -21 90 -12 75 17 142 13 164 -11 17 -19 17 -22 1 -67 -58 -166 -108 -229
-184 -238 l-38 -5 -48 103 c-44 96 -48 109 -47 181 0 43 3 77 8 75 4 -2 28
-14 54 -26z m-637 -306 c8 -27 12 -52 9 -55 -2 -3 -31 4 -62 14 l-57 20 -3 85
-3 85 51 -50 c36 -36 55 -64 65 -99z m-370 15 l29 -90 54 -12 c47 -9 60 -8
101 8 44 18 50 18 121 3 l75 -16 10 -91 10 -92 145 -157 c80 -86 173 -186 207
-223 l62 -66 -22 -17 c-64 -50 -58 -53 -185 77 -65 66 -156 160 -202 208 l-85
88 17 30 c19 32 10 37 -35 20 -27 -11 -41 -36 -30 -56 5 -8 98 -107 208 -221
110 -114 200 -212 200 -218 0 -36 -56 13 -256 224 l-223 235 -105 51 c-58 28
-114 60 -123 70 -31 35 -51 98 -51 159 -1 60 30 188 42 181 4 -3 20 -45 36
-95z m1912 43 c119 -69 214 -264 261 -536 9 -54 20 -98 24 -98 8 0 16 44 20
105 3 39 3 39 65 -75 71 -131 129 -263 139 -314 l6 -35 -37 35 c-50 47 -109
76 -148 72 l-32 -3 52 -33 c104 -66 187 -184 200 -283 l6 -39 -42 41 c-23 23
-44 40 -47 37 -2 -3 5 -35 17 -71 33 -102 12 -165 -72 -207 -21 -11 -40 -20
-41 -20 -2 0 -3 46 -3 103 0 93 -3 107 -31 167 -40 84 -108 166 -184 223 l-60
46 37 3 c38 3 38 3 -45 42 l-82 39 -19 61 c-34 111 -35 248 -5 436 l6 35 -21
-30 c-28 -40 -50 -115 -58 -198 -7 -79 -13 -73 -38 33 -23 99 -23 285 0 408
l17 94 37 -7 c20 -4 55 -17 78 -31z m-1413 -150 c11 -30 6 -40 -29 -57 -20 -9
-38 -17 -40 -17 -11 0 -4 79 8 83 25 11 55 6 61 -9z m511 -693 c61 -11 130
-24 155 -30 25 -6 167 -18 315 -27 308 -19 310 -19 410 -120 66 -65 95 -119
102 -189 6 -58 -19 -153 -43 -162 -7 -3 -136 36 -287 86 l-273 91 -50 -22
c-66 -30 -141 -28 -216 5 l-56 25 -31 -43 c-36 -50 -36 -52 -14 -77 15 -17 14
-18 -18 -18 -40 0 -79 24 -79 48 0 9 14 46 30 81 45 94 32 109 -19 23 -23 -40
-48 -71 -54 -69 -6 2 -20 15 -31 30 l-19 26 47 77 c60 99 45 119 -17 24 -26
-38 -50 -70 -54 -70 -11 0 -43 32 -43 43 0 6 20 43 45 83 66 106 62 117 -21
53 -44 -33 -53 -46 -48 -63 3 -14 -1 -28 -12 -36 -14 -13 -19 -11 -40 15 -38
48 -41 81 -7 109 15 12 55 46 88 74 70 60 79 61 240 33z m916 -32 c55 -19 189
-139 249 -224 46 -66 63 -115 63 -185 1 -55 -4 -74 -32 -127 -36 -66 -59 -86
-37 -30 7 17 16 48 19 67 5 30 4 32 -6 16 -63 -97 -90 -126 -126 -137 -25 -7
-48 -8 -65 -3 l-27 9 27 35 c78 103 99 219 57 312 -27 60 -100 138 -184 197
-36 25 -66 51 -68 56 -5 22 78 31 130 14z m-1462 -568 c1 -20 -1 -21 -14 -11
-8 7 -15 23 -15 36 0 13 -4 24 -10 24 -5 0 -10 -7 -10 -15 0 -8 -7 -15 -15
-15 -19 0 -19 8 1 56 9 22 21 50 27 64 9 22 11 18 23 -45 7 -38 13 -81 13 -94z
m873 102 c61 -63 69 -112 25 -160 -15 -17 -32 -23 -61 -23 -39 0 -46 5 -128
92 l-88 93 31 9 c27 8 34 5 76 -35 37 -36 42 -38 25 -13 -38 56 -32 63 68 73
9 0 32 -16 52 -36z"/>
<path d="M1242 1889 c3 -8 14 -37 24 -65 17 -48 23 -55 86 -88 l68 -36 0 42
c-1 42 -2 44 -81 98 -91 62 -104 69 -97 49z"/>
<path d="M1304 1724 c3 -9 6 -19 6 -24 0 -13 61 -30 77 -21 12 6 4 14 -32 35
-55 30 -59 31 -51 10z"/>
<path d="M2172 2524 c-27 -19 -28 -34 -3 -34 11 0 23 -4 26 -10 3 -5 20 -10
36 -10 18 0 32 -6 34 -15 15 -48 18 -50 25 -20 17 68 13 81 -29 93 -50 16 -62
15 -89 -4z"/>
<path d="M2410 2521 c-34 -9 -31 -31 7 -54 l33 -19 41 30 c38 29 40 31 21 41
-23 12 -63 13 -102 2z"/>
<path d="M2260 2324 c0 -14 49 -44 70 -44 23 0 60 26 60 41 0 3 -29 5 -65 5
-36 0 -65 -1 -65 -2z"/>
<path d="M2278 2224 c-19 -10 -19 -11 10 -17 17 -3 54 -3 82 0 41 5 48 8 35
16 -25 14 -102 14 -127 1z"/>
<path d="M2290 2159 c0 -4 13 -12 30 -19 25 -10 34 -10 55 4 14 9 25 17 25 19
0 1 -25 2 -55 2 -30 0 -55 -3 -55 -6z"/>
<path d="M1455 1548 c-33 -12 -63 -26 -67 -32 -20 -29 4 -97 38 -110 17 -7
144 42 144 55 0 10 -49 110 -53 108 -1 0 -29 -10 -62 -21z m65 -29 c0 -11 4
-29 10 -39 7 -13 6 -19 -5 -24 -18 -6 -35 22 -35 58 0 16 6 26 15 26 8 0 15
-9 15 -21z m-44 -16 c4 -16 11 -33 16 -40 13 -16 -9 -28 -26 -13 -17 13 -29
57 -21 70 11 18 25 10 31 -17z m-30 -75 c-15 -10 -34 9 -41 44 -5 21 -3 33 6
39 17 10 51 -72 35 -83z"/>
<path d="M2503 344 c-9 -24 10 -49 38 -49 20 0 24 5 24 30 0 25 -4 30 -28 33
-18 2 -29 -2 -34 -14z"/>
</g>
</svg>
